<?xml version="1.0" encoding="UTF-8"?> <!-- Generator: Adobe Illustrator 24.2.0, SVG Export Plug-In . SVG Version: 6.00 Build 0) --> <svg xmlns="http://www.w3.org/2000/svg" xmlns:xlink="http://www.w3.org/1999/xlink" version="1.1" id="Layer_1" x="0px" y="0px" viewBox="0 0 920 150" style="enable-background:new 0 0 920 150;" xml:space="preserve"> <style type="text/css"> .st0{fill:#008421;} .st1{fill:#99DB25;} .st2{fill:#009ADE;} .st3{fill:#003764;} .st4{fill:#99DB26;} .st5{fill:#001689;} .st6{fill:#5F99AF;} .st7{fill:#F32735;} .st8{fill:#00B9B1;} .st9{fill:#24C1DB;} .st10{fill:#00BBB4;} .st11{fill:#00A6CE;} .st12{fill:#FF8672;} .st13{fill:none;} .st14{fill:#D1D1D1;} .st15{opacity:0.5;fill:#009ADE;enable-background:new ;} .st16{fill:#10CFC9;} .st17{fill:#004987;} .st18{fill:#0082CA;} .st19{fill:#3A8DDE;} .st20{fill:#410099;} .st21{fill:#7473C0;} .st22{fill:#FF647D;} .st23{fill:#FFB259;} .st24{fill:#6F2277;} .st25{fill:#FD495C;} </style> <g> <polygon class="st2" points="188.4,39.3 188.4,27.4 182.5,27.4 182.5,45.3 200.2,45.3 200.2,39.3 "></polygon> <polygon class="st3" points="212.2,15.5 182.5,15.5 182.5,24.5 188.4,24.5 188.4,21.4 206.2,21.4 206.2,39.3 203.3,39.3 203.3,45.3 212.2,45.3 "></polygon> <g> <path class="st3" d="M220.1,15.9h9v21.9h13v7.5h-22.1V15.9z"></path> <path class="st3" d="M246,15.9h22.8v7.5h-13.7V27h11.8v6.9h-11.8v11.2h-9V15.9z"></path> </g> <path class="st2" d="M292.2,45.4h-16.4V15.7h16.4v1.9h-14.3v11.2h13.6v1.9h-13.6v12.8h14.3V45.4z"></path> <path class="st2" d="M320.8,45.4h-2.1L301,19.1h-0.1c0.1,3.2,0.3,5.6,0.3,7.1v19.3H299V15.7h2.1L318.9,42h0.1 c-0.1-2.5-0.1-4.7-0.1-6.9V15.7h2.1v29.7H320.8z"></path> <path class="st2" d="M345.8,45.4h-16.4V15.7h16.4v1.9h-14.3v11.2h13.6v1.9h-13.6v12.8h14.3V45.4z"></path> <path class="st2" d="M354.7,32.5v12.9h-2.1V15.7h7.2c3.7,0,6.5,0.7,8.3,2.1s2.6,3.5,2.6,6.1c0,1.9-0.6,3.6-1.5,5 c-1.1,1.4-2.6,2.4-4.9,2.9l8.2,13.5h-2.5l-7.8-12.9h-7.6V32.5z M354.7,30.7h5.7c2.5,0,4.4-0.6,6-1.7c1.4-1.1,2.1-2.8,2.1-5 s-0.7-3.9-2.1-5c-1.4-1-3.6-1.5-6.7-1.5h-5V30.7z"></path> <path class="st2" d="M389.2,30.2h10.8v13.2c-2.8,1.2-6.1,1.8-9.6,1.8c-4.6,0-8.2-1.2-10.7-3.9c-2.5-2.6-3.7-6.2-3.7-11 c0-2.9,0.6-5.6,1.8-7.8c1.2-2.2,2.9-4,5.3-5.3c2.2-1.2,4.9-1.8,7.9-1.8c3.2,0,6.1,0.6,8.6,1.8l-0.8,1.8c-2.5-1.1-5.1-1.8-7.9-1.8 c-3.9,0-6.9,1.2-9.2,3.6s-3.5,5.6-3.5,9.6c0,4.3,1.1,7.6,3.2,9.9c2.2,2.2,5.3,3.3,9.6,3.3c2.8,0,5-0.4,6.9-1.1V32.4h-8.7V30.2 L389.2,30.2z"></path> <path class="st2" d="M414.3,32l8.7-16.1h2.2l-10,18v11.4h-2.1V34.1l-10-18.2h2.4L414.3,32z"></path> <polygon class="st17" points="541.7,102.1 509.4,102.1 509.4,127.2 546.6,127.2 546.6,134.7 500,134.7 500,64.3 546,64.3 546,71.8 509.4,71.8 509.4,94.6 541.7,94.6 "></polygon> <polygon class="st17" points="482.3,102.1 450.1,102.1 450.1,127.2 487.3,127.2 487.3,134.7 440.6,134.7 440.6,64.3 486.8,64.3 486.8,71.8 450.1,71.8 450.1,94.6 482.3,94.6 "></polygon> <path class="st17" d="M571.6,64.3l22.5,57.2h0.3l22.5-57.2H629v70.4h-9.6v-27.9l1-28.6h-0.3l-22.8,56.5H591l-22.8-56.3H568l1,28.4 v27.9h-9.6V64.3H571.6z"></path> <path class="st17" d="M683.5,102.1h-32.2v25.1h37v7.5h-46.8V64.3h46.2v7.5h-36.6v22.8h32.2v7.5H683.5z"></path> <path class="st17" d="M756.3,71.8h-22.6v62.9h-9.6V71.8h-22.6v-7.5h54.7v7.5H756.3z"></path> <path class="st17" d="M810.9,102.1h-32.2v25.1h37.2v7.5h-46.8V64.3h46.2v7.5h-36.6v22.8h32.2L810.9,102.1L810.9,102.1z"></path> <path class="st17" d="M838.3,104.1v30.5h-9.6V64.3h25.5c7.8,0,13.6,1.7,17.6,5.1c4,3.5,6.1,8.3,6.1,14.8c0,3.6-1,6.8-2.8,9.4 c-1.9,2.6-4.6,4.9-8.2,6.4c3.9,1.2,6.7,3.3,8.3,6.1s2.5,6.2,2.5,10.4v6.7c0,2.2,0.3,4.2,0.7,6s1.4,3.2,2.5,4.3v1.1h-9.9 c-1.2-1.1-2.1-2.8-2.4-4.9c-0.4-2.1-0.6-4.3-0.6-6.5v-6.4c0-3.7-1.1-6.9-3.3-9.2c-2.2-2.4-5.3-3.5-8.9-3.5h-17.8V104.1z M838.3,96.6h15c5.4,0,9.3-1,11.7-3.1s3.6-5.1,3.6-9.3c0-4-1.1-7.1-3.5-9.2c-2.4-2.2-5.8-3.2-10.8-3.2h-16V96.6z"></path> <rect x="39" y="106.1" class="st17" width="55.1" height="27.9"></rect> <rect x="103.5" y="106.1" class="st17" width="55.1" height="27.9"></rect> <rect x="103.5" y="60.7" class="st18" width="55.1" height="27.9"></rect> <rect x="39" y="60.7" class="st18" width="55.1" height="27.9"></rect> <path class="st19" d="M237.6,105.5c0,8.3-2.6,15.3-7.8,20.8c-5.1,5.6-11.9,8.3-20.1,8.3c-8,0-14.4-2.8-19.4-8.3 c-5-5.6-7.5-12.5-7.5-20.8V93.3c0-8.3,2.5-15.3,7.5-20.8c5-5.6,11.5-8.3,19.4-8.3c8.3,0,15,2.8,20.1,8.3c5.1,5.6,7.8,12.5,7.8,20.8 V105.5z M228.3,93.3c0-6.2-1.7-11.4-5.1-15.4c-3.3-4-7.9-6-13.6-6c-5.4,0-9.7,1.9-12.9,6c-3.2,4-4.9,9.2-4.9,15.4v12.2 c0,6.4,1.7,11.5,4.9,15.5c3.2,4,7.5,6,12.9,6c5.7,0,10.3-1.9,13.6-6c3.3-4,5-9.2,5-15.5V93.3H228.3z"></path> <path class="st19" d="M259.9,106.5v28.2h-9.6V64.3h26.9c7.5,0,13.3,1.9,17.5,5.8c4.2,3.9,6.2,9,6.2,15.3c0,6.4-2.1,11.5-6.2,15.4 c-4.2,3.9-10,5.7-17.5,5.7H259.9z M259.9,99h17.3c4.7,0,8.3-1.2,10.7-3.9c2.4-2.5,3.5-5.8,3.5-9.7s-1.2-7.1-3.6-9.7 c-2.4-2.6-6-3.9-10.7-3.9h-17.3V99H259.9z"></path> <path class="st19" d="M355.5,102.1h-32.2v25.1h37.2v7.5h-46.8V64.3H360v7.5h-36.6v22.8h32.2V102.1z"></path> <path class="st19" d="M426.4,134.7h-9.6L383,80.3l-0.3,0.1v54.3h-9.6V64.3h9.6l33.9,54.4l0.3-0.1V64.3h9.6L426.4,134.7L426.4,134.7 z"></path> <rect x="39" y="15.3" class="st19" width="55.1" height="27.9"></rect> <rect x="103.5" y="15.3" class="st19" width="55.1" height="27.9"></rect> </g> </svg> 